<svg width="80" height="80" viewBox="0 0 80 80" fill="none" xmlns="http://www.w3.org/2000/svg">
<path d="M44.7598 2.4537L45.012 2.88548L45.0351 2.87195L45.0567 2.85601L44.7598 2.4537ZM43.2502 6.60516L42.7651 6.72643L42.7652 6.72687L43.2502 6.60516ZM47.4266 9.31356L47.4883 8.81738L47.4882 8.81736L47.4266 9.31356ZM51.4566 11.7169L51.8161 11.3694L51.8161 11.3694L51.4566 11.7169ZM56.187 21.2132L55.689 21.2575L55.689 21.2575L56.187 21.2132ZM55.8417 22.8632L56.2057 22.5205L56.1965 22.5107L56.1868 22.5014L55.8417 22.8632ZM37.2042 15.0528L37.6704 14.8719L37.6576 14.8389L37.6402 14.808L37.2042 15.0528ZM35.6195 11.6418L35.1442 11.797L35.1442 11.7971L35.6195 11.6418ZM32.3523 15.6996L32.4919 15.2195L32.4919 15.2195L32.3523 15.6996ZM36.112 18.6766L36.5832 18.5092L36.5831 18.5092L36.112 18.6766ZM34 21.2188L33.9178 21.7119L33.9279 21.7136L33.938 21.7149L34 21.2188ZM26.5995 20.0394L26.676 19.5453L26.6699 19.5444L26.5995 20.0394ZM21.7597 20.0394L22.011 20.4717L22.0295 20.4609L22.0471 20.4486L21.7597 20.0394ZM19.5964 23.3821L19.1521 23.1527L19.1521 23.1527L19.5964 23.3821ZM17.5938 32.4688L17.0938 32.4666V32.4688H17.5938ZM15.7812 33.0014L16.1467 32.6603L16.1355 32.6482L16.1235 32.637L15.7812 33.0014ZM11.0312 25.9702L10.5473 26.0959L10.5474 26.0961L11.0312 25.9702ZM11.4289 20.3568L11.0001 20.0998L10.9854 20.1242L10.9736 20.1502L11.4289 20.3568ZM12.1142 15.0968L12.5679 14.8865L12.5567 14.8624L12.543 14.8396L12.1142 15.0968ZM7.58535 13.5872L7.80896 14.0344L7.83302 14.0224L7.85565 14.0078L7.58535 13.5872ZM6.16147 19.5224L5.70627 19.7293L5.70631 19.7293L6.16147 19.5224ZM8.21875 23.5625L8.70921 23.4653L8.7092 23.4652L8.21875 23.5625ZM13.1563 33.0014L13.4512 32.5976L13.4379 32.5879L13.424 32.5791L13.1563 33.0014ZM14.8999 36.0724L14.5403 35.7251L14.5403 35.7251L14.8999 36.0724ZM11.5 37.1563L11.5627 37.6525L11.5754 37.6505L11.5 37.1563ZM8.2172 39.2705L7.89784 39.6553L7.89788 39.6553L8.2172 39.2705ZM12.369 50.2251L11.8753 50.3039L11.8753 50.3039L12.369 50.2251ZM13.2714 54.9427L13.7514 54.8027L13.7514 54.8025L13.2714 54.9427ZM19.5292 63.9053L19.233 64.3082L19.2331 64.3082L19.5292 63.9053ZM16.6164 63.1501L16.8471 62.7065L16.847 62.7065L16.6164 63.1501ZM11.5739 57.5762L12.0507 57.426L12.0507 57.4259L11.5739 57.5762ZM7.79451 53.7437L7.72839 54.2393L7.72841 54.2393L7.79451 53.7437ZM4.45258 59.0353L4.00086 59.2496L4.00087 59.2496L4.45258 59.0353ZM8.45195 61.9224L8.32503 62.4061L8.32516 62.4061L8.45195 61.9224ZM12.6502 63.8751L12.907 63.4461L12.9069 63.446L12.6502 63.8751ZM25.0091 67.8832L25.0326 67.3837L25.0326 67.3837L25.0091 67.8832ZM30.5857 68.935L30.3509 69.3765L30.351 69.3765L30.5857 68.935ZM47.5799 69.8483L47.2708 70.2414L47.3075 70.2702L47.3488 70.2917L47.5799 69.8483ZM52.4966 69.5556L52.7707 69.9739L52.7707 69.9738L52.4966 69.5556ZM56.0545 65.3723L56.2243 65.8426L56.2489 65.8337L56.2724 65.8223L56.0545 65.3723ZM63.3981 58.6367L63.8193 58.9062L63.8193 58.9061L63.3981 58.6367ZM67.9904 55.1099L67.7127 54.6941L67.7126 54.6941L67.9904 55.1099ZM76.6941 39.0192L76.2043 38.9187L76.2043 38.9187L76.6941 39.0192ZM78.283 32.2259L78.7082 32.4889L78.7083 32.4887L78.283 32.2259ZM77.712 25.8213L77.3859 26.2003L77.3859 26.2004L77.712 25.8213ZM72.8683 32.9445L72.5026 33.2854L72.5027 33.2855L72.8683 32.9445ZM73.5711 37.5481L74.0698 37.5831L74.0698 37.5831L73.5711 37.5481ZM68.153 51.5679L68.4989 51.9289L68.499 51.9289L68.153 51.5679ZM67.0714 51.7053L66.6888 51.3834L66.6888 51.3834L67.0714 51.7053ZM70.3084 41.8973L69.8084 41.8966L69.8084 41.8966L70.3084 41.8973ZM67.9677 30.8683L68.4317 30.6822L68.4317 30.6821L67.9677 30.8683ZM60.4317 20.3176L60.2065 19.8712L60.2064 19.8712L60.4317 20.3176ZM58.3703 21.3577L57.8862 21.4829L58.0415 22.0837L58.5955 21.8041L58.3703 21.3577ZM57.5558 18.2071L58.0399 18.082L58.0399 18.082L57.5558 18.2071ZM52.5862 8.76066L52.2018 9.0805L52.2018 9.08051L52.5862 8.76066ZM50.7017 5.45598L50.2168 5.57775L50.2168 5.57783L50.7017 5.45598ZM47.0243 2.07631L46.9262 2.56674L46.9381 2.56883L47.0243 2.07631ZM28.0933 53.5229L27.7568 53.1531L27.7416 53.1669L27.7275 53.182L28.0933 53.5229ZM31.6562 50.2813L31.9927 50.6511L32.0113 50.6342L32.0281 50.6155L31.6562 50.2813ZM33.2717 49.1359L33.201 48.6409L33.2717 49.1359ZM41.441 53.3029L41.4184 53.8023L41.4297 53.8029H41.441V53.3029ZM46.2529 49.1359L46.7024 49.355L46.7084 49.3425L46.7138 49.3298L46.2529 49.1359ZM54.152 44.5474L54.225 44.0528L54.2249 44.0528L54.152 44.5474ZM59.7812 44.5474L59.4666 44.1588L59.4665 44.1589L59.7812 44.5474ZM60.4222 41.8973H60.9222V41.8886L60.9219 41.8799L60.4222 41.8973ZM60.7996 34.9106L61.2924 34.9948L61.2955 34.9768L61.2973 34.9587L60.7996 34.9106ZM18.0418 49.4914L17.6112 49.7455L17.6162 49.754L17.6216 49.7623L18.0418 49.4914ZM11.3594 41.8926L10.989 42.2285L10.9911 42.2308L11.3594 41.8926ZM38.5101 57.771L38.201 57.3779L38.2009 57.378L38.5101 57.771ZM38.9294 63.0411L38.5671 63.3857L38.5671 63.3857L38.9294 63.0411ZM41.3632 64.4607L41.5462 63.9954L41.5384 63.9923L41.5304 63.9895L41.3632 64.4607ZM42.6736 58.3669L42.2982 58.6972L42.2982 58.6972L42.6736 58.3669ZM47.9678 67.8573L48.2917 67.4764L48.2898 67.4749L47.9678 67.8573ZM50.987 68.046L51.1939 68.5012L51.215 68.4916L51.2351 68.4801L50.987 68.046ZM42.4375 14.1474L42.6454 14.6021L42.6992 14.5775L42.7457 14.5411L42.4375 14.1474ZM44.5077 2.02192C42.8518 2.98881 42.3503 5.06703 42.7651 6.72643L43.7353 6.48389C43.3953 5.12404 43.8457 3.56647 45.012 2.88548L44.5077 2.02192ZM42.7652 6.72687C43.2082 8.49194 45.0768 9.526 47.3651 9.80976L47.4882 8.81736C45.333 8.55011 44.0236 7.63271 43.7352 6.48345L42.7652 6.72687ZM47.3649 9.80974C48.2174 9.91575 48.6712 10.0233 49.1351 10.3C49.6251 10.5922 50.1537 11.0885 51.0971 12.0644L51.8161 11.3694C50.889 10.4104 50.2707 9.81291 49.6473 9.44113C48.9979 9.05387 48.3719 8.92725 47.4883 8.81738L47.3649 9.80974ZM51.0971 12.0644C53.7246 14.783 55.4177 18.2079 55.689 21.2575L56.685 21.1689C56.3895 17.8463 54.5681 14.2167 51.8161 11.3694L51.0971 12.0644ZM55.689 21.2575C55.7358 21.7835 55.7843 22.2552 55.8098 22.5368C55.8398 22.8684 55.8441 23.0105 55.8381 23.0583C55.8374 23.0643 55.8394 23.0393 55.8553 23.0004C55.8707 22.9625 55.9156 22.8714 56.0238 22.8028C56.1436 22.7267 56.2673 22.7242 56.3485 22.7401C56.4177 22.7536 56.4597 22.7801 56.4653 22.7836C56.476 22.7903 56.4605 22.7815 56.4035 22.7257C56.3524 22.6756 56.2891 22.609 56.2057 22.5205L55.4776 23.2059C55.5588 23.2922 55.6358 23.3734 55.7035 23.4398C55.7653 23.5004 55.847 23.5766 55.9361 23.6321C55.9875 23.6642 56.2657 23.8335 56.5594 23.6472C56.6894 23.5648 56.752 23.4497 56.7816 23.3772C56.8115 23.3036 56.824 23.2332 56.8304 23.1826C56.8527 23.0038 56.8321 22.7389 56.8057 22.4468C56.7748 22.1048 56.7355 21.7362 56.685 21.1688L55.689 21.2575ZM37.6402 14.808C37.0303 13.7214 36.3339 12.2182 36.0948 11.4864L35.1442 11.7971C35.4116 12.615 36.1418 14.1816 36.7682 15.2975L37.6402 14.808ZM36.0948 11.4865C35.3749 9.28235 33.4652 8.19002 31.7109 8.23008C30.8337 8.25011 29.9776 8.55428 29.3366 9.16467C28.6892 9.78105 28.2979 10.675 28.2979 11.7976H29.2979C29.2979 10.9197 29.5971 10.2974 30.0261 9.88889C30.4615 9.4744 31.0676 9.24503 31.7337 9.22982C33.0659 9.1994 34.567 10.0298 35.1442 11.797L36.0948 11.4865ZM28.2979 11.7976C28.2979 12.8696 28.6293 13.796 29.3127 14.5463C29.9864 15.2859 30.969 15.8182 32.2127 16.1798L32.4919 15.2195C31.3549 14.8889 30.5603 14.4309 30.052 13.8729C29.5534 13.3255 29.2979 12.6471 29.2979 11.7976H28.2979ZM32.2127 16.1798C34.1063 16.7304 35.2235 17.67 35.6409 18.8441L36.5831 18.5092C36.0185 16.9206 34.5596 15.8208 32.4919 15.2195L32.2127 16.1798ZM35.6409 18.844C35.7729 19.2157 35.7451 19.7551 35.5001 20.1596C35.2815 20.5203 34.8617 20.8226 34.062 20.7226L33.938 21.7149C35.1039 21.8606 35.9195 21.397 36.3553 20.6778C36.7646 20.0023 36.81 19.1479 36.5832 18.5092L35.6409 18.844ZM34 21.2188C34.0822 20.7256 34.0822 20.7256 34.0822 20.7255C34.0821 20.7255 34.0821 20.7255 34.0821 20.7255C34.082 20.7255 34.0818 20.7255 34.0816 20.7255C34.0813 20.7254 34.0808 20.7253 34.0801 20.7252C34.0787 20.725 34.0766 20.7246 34.0738 20.7242C34.0683 20.7232 34.0601 20.7219 34.0492 20.7201C34.0274 20.7164 33.9948 20.711 33.9518 20.7039C33.8657 20.6897 33.7377 20.6686 33.5698 20.641C33.2341 20.5859 32.7387 20.505 32.0999 20.4019C30.8223 20.1958 28.9712 19.9008 26.676 19.5453L26.523 20.5335C28.8158 20.8886 30.6649 21.1833 31.9406 21.3892C32.5784 21.4921 33.0729 21.5728 33.4079 21.6278C33.5753 21.6553 33.7029 21.6763 33.7886 21.6905C33.8314 21.6976 33.8638 21.703 33.8854 21.7066C33.8962 21.7084 33.9043 21.7097 33.9097 21.7106C33.9124 21.7111 33.9145 21.7114 33.9158 21.7116C33.9165 21.7117 33.917 21.7118 33.9173 21.7119C33.9175 21.7119 33.9176 21.7119 33.9177 21.7119C33.9177 21.7119 33.9178 21.7119 33.9178 21.7119C33.9178 21.7119 33.9178 21.7119 34 21.2188ZM26.6699 19.5444C25.6241 19.3957 24.619 19.2152 23.7744 19.1648C22.9319 19.1146 22.1126 19.1805 21.4722 19.6303L22.0471 20.4486C22.3971 20.2027 22.9227 20.1158 23.7149 20.163C24.5051 20.2102 25.4248 20.3774 26.5291 20.5345L26.6699 19.5444ZM21.5083 19.6072C21.3227 19.7151 21.1481 19.8985 20.993 20.088C20.8286 20.289 20.6489 20.5438 20.4583 20.8402C20.0765 21.4339 19.6316 22.2244 19.1521 23.1527L20.0406 23.6116C20.5126 22.6977 20.9414 21.9378 21.2994 21.3811C21.4787 21.1023 21.6354 20.882 21.7669 20.7214C21.9078 20.5493 21.9886 20.4847 22.011 20.4717L21.5083 19.6072ZM19.1521 23.1527C17.3593 26.624 17.1041 30.0374 17.0938 32.4666L18.0937 32.4709C18.1038 30.1062 18.3538 26.8777 20.0406 23.6116L19.1521 23.1527ZM16.1235 32.637C15.3185 31.8809 14.3029 30.727 13.4158 29.4778C12.5227 28.2202 11.7929 26.9122 11.5151 25.8443L10.5474 26.0961C10.8712 27.3409 11.6848 28.7674 12.6004 30.0568C13.5221 31.3546 14.5807 32.5599 15.4389 33.3659L16.1235 32.637ZM11.5152 25.8444C11.1457 24.4225 11.0393 23.5848 11.1105 22.8793C11.1816 22.1747 11.4325 21.5589 11.8842 20.5635L10.9736 20.1502C10.5264 21.1358 10.2052 21.8903 10.1156 22.7789C10.026 23.6666 10.1703 24.6451 10.5473 26.0959L11.5152 25.8444ZM11.8578 20.6139C12.533 19.4874 12.9655 18.5679 13.0927 17.6611C13.2229 16.7323 13.0261 15.875 12.5679 14.8865L11.6606 15.3071C12.0687 16.1874 12.1973 16.8455 12.1024 17.5222C12.0044 18.2209 11.6611 18.997 11.0001 20.0998L11.8578 20.6139ZM12.543 14.8396C11.8965 13.762 10.8794 13.1635 9.90438 12.9194C8.95418 12.6816 7.94857 12.7594 7.31506 13.1665L7.85565 14.0078C8.17615 13.8019 8.86886 13.6911 9.66154 13.8895C10.4294 14.0817 11.1998 14.5445 11.6855 15.354L12.543 14.8396ZM7.36175 13.14C6.12889 13.7564 5.33311 14.6457 5.05962 15.814C4.79193 16.9575 5.04675 18.278 5.70627 19.7293L6.61668 19.3155C6.00207 17.9631 5.83662 16.8821 6.03329 16.0419C6.22416 15.2266 6.77739 14.5502 7.80896 14.0344L7.36175 13.14ZM5.70631 19.7293C5.94996 20.2652 6.43171 20.9932 6.83085 21.6668C7.25518 22.383 7.61239 23.0753 7.7283 23.6598L8.7092 23.4652C8.5564 22.6948 8.11387 21.8705 7.69118 21.1571C7.24331 20.4012 6.83078 19.7865 6.61664 19.3155L5.70631 19.7293ZM7.72829 23.6597C8.06747 25.3708 8.26624 27.1526 8.90956 28.7928C9.56994 30.4765 10.6983 32.0359 12.8887 33.4238L13.424 32.5791C11.4131 31.3049 10.4233 29.9136 9.84052 28.4277C9.24066 26.8983 9.07125 25.2916 8.70921 23.4653L7.72829 23.6597ZM13.1563 33.0014C12.8615 33.4052 12.8614 33.4052 12.8613 33.4051C12.8613 33.4051 12.8613 33.4051 12.8613 33.4051C12.8612 33.405 12.8612 33.4051 12.8613 33.4051C12.8614 33.4052 12.8617 33.4054 12.8621 33.4057C12.863 33.4063 12.8645 33.4074 12.8666 33.409C12.8708 33.4122 12.8776 33.4172 12.8865 33.4239C12.9045 33.4374 12.9315 33.458 12.966 33.4848C13.035 33.5385 13.1335 33.6171 13.249 33.7148C13.4818 33.9116 13.7757 34.1795 14.0356 34.4731C14.3024 34.7744 14.5004 35.0662 14.584 35.3101C14.6602 35.532 14.6241 35.6382 14.5403 35.7251L15.2596 36.4197C15.6847 35.9795 15.6853 35.4383 15.5299 34.9855C15.3821 34.5548 15.0806 34.1448 14.7842 33.8101C14.481 33.4677 14.1481 33.1655 13.8949 32.9513C13.7674 32.8434 13.6581 32.7562 13.5801 32.6955C13.541 32.6651 13.5097 32.6413 13.4877 32.6248C13.4767 32.6165 13.468 32.61 13.4619 32.6055C13.4588 32.6032 13.4564 32.6014 13.4546 32.6001C13.4537 32.5994 13.453 32.5989 13.4524 32.5985C13.4521 32.5983 13.4519 32.5981 13.4517 32.598C13.4516 32.5979 13.4515 32.5978 13.4514 32.5978C13.4513 32.5977 13.4512 32.5976 13.1563 33.0014ZM14.5403 35.7251C14.463 35.8051 14.2627 35.924 13.9209 36.054C13.5993 36.1763 13.2165 36.2854 12.8413 36.3771C12.4681 36.4683 12.1128 36.5398 11.8501 36.5885C11.719 36.6128 11.6117 36.6313 11.5375 36.6437C11.5004 36.6499 11.4717 36.6545 11.4525 36.6576C11.4428 36.6591 11.4356 36.6603 11.4309 36.661C11.4286 36.6614 11.4269 36.6616 11.4258 36.6618C11.4253 36.6619 11.4249 36.6619 11.4247 36.662C11.4246 36.662 11.4245 36.662 11.4245 36.662C11.4245 36.662 11.4245 36.662 11.4245 36.662C11.4245 36.662 11.4246 36.662 11.5 37.1563C11.5754 37.6505 11.5755 37.6505 11.5756 37.6505C11.5756 37.6505 11.5757 37.6505 11.5757 37.6505C11.5759 37.6505 11.5761 37.6504 11.5763 37.6504C11.5768 37.6503 11.5774 37.6502 11.5782 37.6501C11.5798 37.6499 11.5821 37.6495 11.585 37.6491C11.5907 37.6482 11.5991 37.6468 11.6098 37.6451C11.6314 37.6417 11.6625 37.6367 11.7022 37.63C11.7815 37.6168 11.8947 37.5972 12.0324 37.5717C12.3072 37.5207 12.6819 37.4455 13.0787 37.3485C13.4735 37.2521 13.9006 37.1316 14.2765 36.9886C14.6322 36.8533 15.0169 36.6711 15.2596 36.4197L14.5403 35.7251ZM11.4373 36.6602C10.4105 36.79 9.5849 36.9119 8.94966 37.0423C8.33191 37.1692 7.83099 37.3154 7.50063 37.5229C7.32945 37.6304 7.15832 37.7823 7.06477 38.0009C6.96491 38.2343 6.9847 38.4694 7.06144 38.6716C7.13335 38.861 7.2577 39.0313 7.3927 39.1818C7.53088 39.3357 7.70286 39.4934 7.89784 39.6553L8.53656 38.8858C8.36113 38.7402 8.22984 38.6174 8.13691 38.5138C8.04081 38.4067 8.00622 38.3427 7.99634 38.3166C7.99131 38.3034 8.00648 38.3421 7.98417 38.3942C7.96817 38.4316 7.95676 38.4173 8.03247 38.3698C8.19588 38.2671 8.53741 38.1478 9.15079 38.0219C9.7467 37.8995 10.5409 37.7814 11.5627 37.6523L11.4373 36.6602ZM7.89788 39.6553C8.63168 40.2643 9.42335 41.5877 10.1413 43.482C10.8507 45.3536 11.4616 47.7101 11.8753 50.3039L12.8628 50.1464C12.4406 47.4994 11.8145 45.075 11.0764 43.1276C10.3469 41.2029 9.48067 39.6694 8.53653 38.8858L7.89788 39.6553ZM11.8753 50.3039C12.1891 52.2698 12.5992 54.4246 12.7915 55.0829L13.7514 54.8025C13.5798 54.2153 13.1785 52.1243 12.8628 50.1463L11.8753 50.3039ZM12.7914 55.0827C13.8282 58.6371 16.2633 62.1252 19.233 64.3082L19.8253 63.5025C17.0336 61.4502 14.727 58.1473 13.7514 54.8027L12.7914 55.0827ZM19.2331 64.3082C19.4741 64.4853 19.6587 64.6305 19.7922 64.7451C19.8588 64.8024 19.9095 64.8494 19.9465 64.8867C19.9649 64.9052 19.9786 64.92 19.9885 64.9314C19.9934 64.937 19.997 64.9414 19.9995 64.9446C20.0008 64.9462 20.0017 64.9474 20.0023 64.9482C20.0029 64.9491 20.0032 64.9495 20.0032 64.9494C20.0032 64.9494 20.0028 64.9489 20.0021 64.9479C20.0015 64.9468 20.0004 64.9452 19.9991 64.9429C19.9965 64.9386 19.9922 64.9309 19.9872 64.92C19.9787 64.9015 19.9596 64.8554 19.9543 64.7891C19.9486 64.717 19.9596 64.6159 20.0212 64.516C20.0819 64.4176 20.1645 64.3646 20.2244 64.3385C20.3226 64.2959 20.3949 64.3091 20.3717 64.307C20.3656 64.3064 20.3398 64.3029 20.2879 64.2894C19.8286 64.1704 18.6598 63.6492 16.8471 62.7065L16.3857 63.5937C18.1726 64.523 19.4466 65.1044 20.037 65.2574C20.1162 65.278 20.1999 65.2955 20.281 65.3029C20.3451 65.3087 20.4823 65.3168 20.6228 65.2558C20.7038 65.2206 20.802 65.1551 20.8724 65.0408C20.9437 64.9251 20.9587 64.8049 20.9512 64.7104C20.9385 64.549 20.8589 64.428 20.8218 64.3751C20.7333 64.249 20.5948 64.1164 20.444 63.9868C20.2842 63.8494 20.0775 63.6878 19.8253 63.5024L19.2331 64.3082ZM16.847 62.7065C15.3355 61.9207 14.3532 61.2478 13.6428 60.4625C12.9384 59.684 12.4717 58.7619 12.0507 57.426L11.097 57.7265C11.5429 59.1418 12.0665 60.2108 12.9012 61.1334C13.7298 62.0493 14.8353 62.7877 16.3857 63.5938L16.847 62.7065ZM12.0507 57.4259C11.6462 56.1427 11.1535 55.163 10.4686 54.4685C9.77065 53.7607 8.91255 53.3883 7.8606 53.2481L7.72841 54.2393C8.60653 54.3564 9.24427 54.6511 9.75656 55.1706C10.2819 55.7034 10.7139 56.5113 11.097 57.7266L12.0507 57.4259ZM7.86063 53.2481C6.22637 53.03 4.86351 53.7332 4.11555 54.9175C3.37263 56.0939 3.26376 57.6962 4.00086 59.2496L4.90431 58.8209C4.29935 57.546 4.41881 56.3101 4.96105 55.4515C5.49825 54.6009 6.47738 54.0724 7.72839 54.2393L7.86063 53.2481ZM4.00087 59.2496C4.40242 60.0958 4.88536 60.7435 5.59308 61.2544C6.28956 61.7571 7.17068 62.1031 8.32503 62.4061L8.57887 61.4388C7.47256 61.1485 6.72894 60.841 6.17839 60.4435C5.63906 60.0542 5.25265 59.5549 4.9043 58.8209L4.00087 59.2496ZM8.32516 62.4061C9.1738 62.6286 11.0156 63.48 12.3935 64.3042L12.9069 63.446C11.4973 62.6029 9.56127 61.6964 8.57875 61.4388L8.32516 62.4061ZM12.3935 64.3042C16.979 67.0484 20.4134 68.1675 24.9856 68.3826L25.0326 67.3837C20.652 67.1776 17.3761 66.1207 12.907 63.4461L12.3935 64.3042ZM24.9856 68.3826C28.1284 68.5306 29.1569 68.7415 30.3509 69.3765L30.8204 68.4935C29.4156 67.7464 28.1918 67.5324 25.0326 67.3837L24.9856 68.3826ZM30.351 69.3765C32.1612 70.3389 35.2066 70.8746 38.2171 70.8499C41.2203 70.8253 44.3456 70.2423 46.2677 68.826L45.6745 68.0209C44.0113 69.2464 41.1494 69.8259 38.2089 69.85C35.2758 69.874 32.4211 69.3446 30.8204 68.4935L30.351 69.3765ZM47.3488 70.2917C48.543 70.9142 49.583 71.0601 50.503 70.9214C51.4117 70.7844 52.1568 70.3761 52.7707 69.9739L52.2226 69.1374C51.6541 69.51 51.0522 69.8273 50.3539 69.9326C49.6668 70.0362 48.8396 69.9411 47.811 69.4049L47.3488 70.2917ZM52.7707 69.9738C53.3957 69.5643 54.0881 68.7807 54.5801 68.0098C54.829 67.6198 55.0416 67.2099 55.1707 66.8264C55.2921 66.4654 55.3734 66.0301 55.2279 65.6509L54.2943 66.0091C54.3103 66.051 54.3255 66.2026 54.2229 66.5075C54.1279 66.7899 53.9585 67.1249 53.7371 67.4718C53.2885 68.1748 52.6872 68.833 52.2226 69.1374L52.7707 69.9738ZM56.2724 65.8223C57.473 65.2411 58.9693 64.1161 60.3453 62.854C61.724 61.5896 63.025 60.1478 63.8193 58.9062L62.9769 58.3673C62.2464 59.5093 61.0128 60.8849 59.6694 62.1171C58.3234 63.3517 56.9102 64.4026 55.8367 64.9222L56.2724 65.8223ZM63.8193 58.9061C64.1585 58.3758 64.5192 57.8992 64.8222 57.561C64.9748 57.3906 65.1035 57.2659 65.2002 57.1881C65.2489 57.1489 65.279 57.1302 65.2917 57.1234C65.3136 57.1118 65.271 57.141 65.1862 57.141V56.141C65.0311 56.141 64.9017 56.1983 64.823 56.2401C64.7351 56.2867 64.6507 56.3467 64.5734 56.4089C64.4181 56.5339 64.2489 56.7022 64.0774 56.8937C63.7322 57.2789 63.3396 57.8002 62.9769 58.3673L63.8193 58.9061ZM65.1862 57.141C65.3024 57.141 65.414 57.1097 65.4884 57.0859C65.5743 57.0583 65.6686 57.021 65.7662 56.9783C65.9621 56.8925 66.1996 56.7726 66.4605 56.6302C66.9837 56.3445 67.6273 55.9538 68.2681 55.5256L67.7126 54.6941C67.0925 55.1084 66.4746 55.4832 65.9813 55.7525C65.7339 55.8875 65.5244 55.9925 65.3652 56.0622C65.2852 56.0972 65.2249 56.1202 65.1831 56.1336C65.1297 56.1508 65.1404 56.141 65.1862 56.141V57.141ZM68.268 55.5257C72.4583 52.7277 75.6007 46.8386 77.1839 39.1196L76.2043 38.9187C74.6429 46.5315 71.5823 52.1102 67.7127 54.6941L68.268 55.5257ZM77.1839 39.1197C77.4019 38.0567 77.6003 36.9963 77.7444 36.1429C77.8846 35.3131 77.9832 34.6252 77.9832 34.3461H76.9832C76.9832 34.5215 76.9043 35.1122 76.7584 35.9764C76.6164 36.817 76.4203 37.8659 76.2043 38.9187L77.1839 39.1197ZM77.9832 34.3461C77.9832 34.2137 78.0451 33.9322 78.1859 33.5587C78.3206 33.2016 78.5067 32.8146 78.7082 32.4889L77.8577 31.9628C77.6191 32.3486 77.4054 32.7944 77.2502 33.2058C77.1013 33.6009 76.9832 34.0238 76.9832 34.3461H77.9832ZM78.7083 32.4887C79.3609 31.4328 79.586 30.0255 79.4713 28.7386C79.3575 27.4624 78.897 26.181 78.038 25.4422L77.3859 26.2004C77.9671 26.7002 78.3731 27.681 78.4753 28.8274C78.5765 29.9631 78.367 31.1388 77.8576 31.963L78.7083 32.4887ZM78.038 25.4422C76.4761 24.0986 74.6167 23.8215 73.1199 24.4484C71.6172 25.0778 70.5673 26.583 70.5673 28.6043H71.5673C71.5673 26.9534 72.4044 25.8323 73.5062 25.3708C74.614 24.9068 76.0769 25.0743 77.3859 26.2003L78.038 25.4422ZM70.5673 28.6043C70.5673 29.5743 70.6721 30.3571 70.9822 31.1046C71.2907 31.8481 71.7863 32.517 72.5026 33.2854L73.2341 32.6035C72.5536 31.8736 72.1486 31.3064 71.9059 30.7213C71.6647 30.1402 71.5673 29.5021 71.5673 28.6043H70.5673ZM72.5027 33.2855C72.7377 33.5375 72.8794 33.6986 72.9782 33.8578C73.0676 34.002 73.1281 34.1557 73.1641 34.3917C73.244 34.9149 73.1965 35.7463 73.0723 37.513L74.0698 37.5831C74.1898 35.8773 74.2538 34.9031 74.1527 34.2408C74.0982 33.8841 73.9951 33.6 73.8279 33.3305C73.67 33.0761 73.4618 32.8477 73.234 32.6034L72.5027 33.2855ZM73.0723 37.513C72.6507 43.5078 70.7293 48.4068 67.8071 51.2069L68.499 51.9289C71.6658 48.8944 73.6384 43.7174 74.0698 37.5831L73.0723 37.513ZM67.8071 51.2069C67.3246 51.6692 66.9299 52.0137 66.6352 52.2428C66.4872 52.3578 66.3717 52.438 66.2877 52.4885C66.184 52.551 66.1807 52.5356 66.2394 52.5281C66.2704 52.5242 66.4187 52.5101 66.5608 52.6278C66.7153 52.7559 66.7249 52.9225 66.7227 52.9773C66.7206 53.0322 66.7068 53.0591 66.7137 53.0416C66.7182 53.0302 66.7297 53.0046 66.7535 52.9624C66.853 52.7857 67.0744 52.4784 67.454 52.0272L66.6888 51.3834C66.3014 51.8439 66.0297 52.2098 65.8823 52.4715C65.8443 52.5389 65.8094 52.6083 65.7825 52.6771C65.7579 52.7399 65.7276 52.8326 65.7235 52.9386C65.7194 53.0445 65.7415 53.2476 65.9226 53.3978C66.0913 53.5376 66.2803 53.531 66.3656 53.5201C66.5329 53.4989 66.6929 53.4118 66.8034 53.3453C66.9338 53.2668 67.0837 53.1607 67.2488 53.0324C67.5802 52.7748 68.002 52.4051 68.4989 51.9289L67.8071 51.2069ZM67.4539 52.0272C69.7302 49.3224 70.8026 46.036 70.8084 41.898L69.8084 41.8966C69.8028 45.8464 68.786 48.8913 66.6888 51.3834L67.4539 52.0272ZM70.8084 41.898C70.8141 37.8589 70.2477 35.208 68.4317 30.6822L67.5037 31.0545C69.2821 35.4868 69.8139 38.0101 69.8084 41.8966L70.8084 41.898ZM68.4317 30.6821C66.621 26.1701 65.6829 21.6866 65.6772 19.8733L64.6772 19.8765C64.6835 21.8697 65.6709 26.4877 67.5037 31.0546L68.4317 30.6821ZM65.6772 19.8733C65.6764 19.6394 65.6023 19.4205 65.4537 19.2399C65.3109 19.0664 65.1227 18.9562 64.9338 18.8866C64.5659 18.7511 64.102 18.735 63.6243 18.7829C62.6534 18.8802 61.4082 19.2651 60.2065 19.8712L60.6568 20.764C61.7777 20.1986 62.9037 19.8601 63.724 19.7779C64.142 19.7361 64.4288 19.7663 64.5882 19.8249C64.6628 19.8524 64.6823 19.8763 64.6816 19.8753C64.6749 19.8673 64.6771 19.8593 64.6772 19.8765L65.6772 19.8733ZM60.2064 19.8712L58.145 20.9113L58.5955 21.8041L60.6569 20.764L60.2064 19.8712ZM58.8544 21.2326L58.0399 18.082L57.0718 18.3323L57.8862 21.4829L58.8544 21.2326ZM58.0399 18.082C57.0999 14.4465 55.6004 11.6009 52.9705 8.44082L52.2018 9.08051C54.7469 12.1386 56.1723 14.8536 57.0718 18.3323L58.0399 18.082ZM52.9705 8.44083C52.511 7.8887 52.0905 7.22341 51.7679 6.62808C51.4389 6.0209 51.2365 5.53262 51.1866 5.33414L50.2168 5.57783C50.2986 5.90356 50.5518 6.48283 50.8887 7.10454C51.2321 7.73811 51.688 8.46304 52.2018 9.0805L52.9705 8.44083ZM51.1866 5.33422C50.9877 4.54188 50.3226 3.67487 49.5878 2.99857C48.8518 2.32116 47.9281 1.72681 47.1104 1.58379L46.9381 2.56883C47.4776 2.66319 48.229 3.10709 48.9106 3.73438C49.5934 4.36277 50.0885 5.06691 50.2168 5.57775L51.1866 5.33422ZM47.1223 1.58602C46.0708 1.37571 45.1295 1.55951 44.4629 2.05138L45.0567 2.85601C45.4513 2.56484 46.0907 2.39948 46.9262 2.5666L47.1223 1.58602ZM28.4298 53.8927L31.9927 50.6511L31.3198 49.9114L27.7568 53.1531L28.4298 53.8927ZM31.6562 50.2813C32.0281 50.6155 32.028 50.6156 32.028 50.6156C32.028 50.6157 32.0279 50.6157 32.0279 50.6157C32.0279 50.6158 32.0278 50.6158 32.0278 50.6158C32.0278 50.6158 32.0278 50.6158 32.0279 50.6157C32.0281 50.6155 32.0285 50.615 32.0291 50.6144C32.0304 50.613 32.0325 50.6107 32.0354 50.6075C32.0413 50.6011 32.0505 50.5912 32.0627 50.5782C32.0871 50.5522 32.1234 50.5141 32.1694 50.4677C32.2617 50.3745 32.3905 50.2501 32.5375 50.1241C32.6857 49.997 32.8444 49.875 32.9966 49.7819C33.1559 49.6845 33.2727 49.6409 33.3424 49.6309L33.201 48.6409C32.9347 48.679 32.6815 48.8025 32.4749 48.9288C32.2613 49.0595 32.0581 49.2178 31.8865 49.3651C31.7135 49.5134 31.5645 49.6574 31.459 49.7639C31.406 49.8174 31.3634 49.862 31.3335 49.8938C31.3186 49.9097 31.3069 49.9224 31.2986 49.9314C31.2945 49.9359 31.2912 49.9395 31.2888 49.9421C31.2876 49.9434 31.2867 49.9445 31.2859 49.9453C31.2856 49.9457 31.2853 49.946 31.285 49.9463C31.2849 49.9465 31.2848 49.9466 31.2847 49.9467C31.2846 49.9467 31.2846 49.9468 31.2845 49.9468C31.2845 49.9469 31.2844 49.947 31.6562 50.2813ZM33.3424 49.6309C34.6929 49.438 35.4005 50.2003 36.4942 51.3153C37.5661 52.4082 38.9045 53.6888 41.4184 53.8023L41.4636 52.8034C39.349 52.7078 38.2433 51.6706 37.2081 50.6151C36.1945 49.5817 35.1317 48.3651 33.201 48.6409L33.3424 49.6309ZM41.441 53.8029C43.0738 53.8029 44.4069 52.5955 45.2762 51.5367C45.7239 50.9914 46.0787 50.4488 46.3211 50.0438C46.4427 49.8408 46.5368 49.6709 46.6011 49.5509C46.6332 49.4908 46.6579 49.4431 46.6749 49.4098C46.6834 49.3931 46.69 49.38 46.6945 49.3708C46.6968 49.3662 46.6986 49.3626 46.6999 49.3599C46.7006 49.3586 46.7011 49.3575 46.7015 49.3567C46.7017 49.3563 46.7019 49.3559 46.702 49.3557C46.7021 49.3555 46.7022 49.3553 46.7022 49.3553C46.7023 49.3551 46.7024 49.355 46.2529 49.1359C45.8035 48.9169 45.8035 48.9168 45.8036 48.9167C45.8036 48.9167 45.8036 48.9166 45.8036 48.9166C45.8036 48.9165 45.8036 48.9166 45.8036 48.9167C45.8035 48.9168 45.8032 48.9173 45.8029 48.918C45.8022 48.9193 45.8011 48.9216 45.7995 48.9249C45.7962 48.9315 45.791 48.9418 45.7839 48.9557C45.7698 48.9834 45.7482 49.0252 45.7194 49.0791C45.6617 49.1869 45.5754 49.3426 45.4631 49.5302C45.2379 49.9065 44.911 50.4056 44.5034 50.9021C43.662 51.9268 42.5892 52.8029 41.441 52.8029V53.8029ZM54.079 45.0421C55.9451 45.3174 57.2057 45.4702 58.0955 45.4748C58.9959 45.4795 59.604 45.3345 60.096 44.9359L59.4665 44.1589C59.2331 44.348 58.898 44.479 58.1008 44.4748C57.293 44.4706 56.1017 44.3296 54.225 44.0528L54.079 45.0421ZM60.0959 44.936C60.2639 44.8 60.4196 44.6527 60.546 44.4677C60.6754 44.2785 60.7588 44.0727 60.813 43.8355C60.914 43.3938 60.9222 42.7873 60.9222 41.8973H59.9222C59.9222 42.8288 59.9084 43.3056 59.8382 43.6127C59.8068 43.7499 59.7673 43.8349 59.7205 43.9033C59.6708 43.976 59.5971 44.0531 59.4666 44.1588L60.0959 44.936ZM60.4222 41.8973C60.9219 41.8799 60.9219 41.8799 60.9219 41.8799C60.9219 41.8799 60.9219 41.8799 60.9219 41.8799C60.9219 41.8798 60.9219 41.8797 60.9218 41.8795C60.9218 41.8791 60.9218 41.8785 60.9218 41.8776C60.9217 41.8759 60.9216 41.8732 60.9215 41.8697C60.9213 41.8625 60.9209 41.8516 60.9205 41.8371C60.9197 41.8082 60.9185 41.765 60.9171 41.7088C60.9144 41.5963 60.911 41.4316 60.9086 41.2244C60.9038 40.8096 60.9026 40.2251 60.9174 39.5471C60.9471 38.1865 61.0408 36.4684 61.2924 34.9948L60.3067 34.8265C60.0428 36.3721 59.9478 38.1473 59.9177 39.5252C59.9026 40.2165 59.9037 40.8125 59.9087 41.236C59.9111 41.4479 59.9146 41.6167 59.9174 41.733C59.9188 41.7912 59.92 41.8362 59.921 41.8668C59.9214 41.8822 59.9218 41.8939 59.922 41.902C59.9222 41.906 59.9223 41.909 59.9223 41.9112C59.9224 41.9122 59.9224 41.9131 59.9224 41.9136C59.9224 41.9139 59.9225 41.9142 59.9225 41.9143C59.9225 41.9144 59.9225 41.9145 59.9225 41.9146C59.9225 41.9146 59.9225 41.9147 60.4222 41.8973ZM61.2973 34.9587L61.8634 29.1L60.868 29.0038L60.3019 34.8625L61.2973 34.9587ZM18.4725 49.2374C17.9846 48.4105 17.185 47.4609 16.0829 46.2498C14.9851 45.0433 13.5204 43.5067 11.7277 41.5544L10.9911 42.2308C12.8153 44.2173 14.2334 45.7031 15.3433 46.9228C16.4491 48.138 17.1822 49.0184 17.6112 49.7455L18.4725 49.2374ZM11.7298 41.5568C10.5787 40.2873 9.7305 39.8161 8.52457 38.8762L7.90984 39.6649C9.21116 40.6791 9.91522 41.0442 10.989 42.2285L11.7298 41.5568ZM38.2009 57.378C37.2718 58.109 36.8269 59.0925 36.9137 60.184C36.9985 61.2493 37.5834 62.3516 38.5671 63.3857L39.2916 62.6964C38.4031 61.7624 37.971 60.8647 37.9106 60.1047C37.8522 59.3707 38.1337 58.7033 38.8192 58.1639L38.2009 57.378ZM38.5671 63.3857C39.0295 63.8717 39.7041 64.2582 40.225 64.5142C40.4921 64.6455 40.7326 64.749 40.9065 64.8199C40.9937 64.8554 41.0646 64.8829 41.1144 64.9017C41.1393 64.9111 41.1589 64.9184 41.1727 64.9235C41.1796 64.926 41.185 64.9279 41.1889 64.9294C41.1909 64.9301 41.1924 64.9306 41.1936 64.931C41.1942 64.9312 41.1947 64.9314 41.195 64.9315C41.1952 64.9316 41.1954 64.9317 41.1955 64.9317C41.1956 64.9318 41.1957 64.9318 41.1957 64.9318C41.1958 64.9318 41.1959 64.9319 41.3632 64.4607C41.5304 63.9895 41.5305 63.9895 41.5306 63.9895C41.5306 63.9895 41.5306 63.9895 41.5306 63.9895C41.5307 63.9896 41.5307 63.9896 41.5307 63.9896C41.5307 63.9896 41.5306 63.9895 41.5304 63.9894C41.53 63.9893 41.5292 63.989 41.528 63.9886C41.5256 63.9877 41.5218 63.9864 41.5165 63.9844C41.506 63.9806 41.4897 63.9745 41.4683 63.9664C41.4255 63.9503 41.3624 63.9258 41.2838 63.8938C41.1261 63.8295 40.9077 63.7355 40.6662 63.6168C40.1697 63.3727 39.6274 63.0494 39.2916 62.6964L38.5671 63.3857ZM43.049 58.0366C42.3781 57.2742 41.5584 56.7992 40.6938 56.6754C39.8239 56.5509 38.9501 56.7888 38.201 57.3779L38.8191 58.164C39.3652 57.7345 39.9671 57.5816 40.5521 57.6653C41.1424 57.7498 41.7569 58.082 42.2982 58.6972L43.049 58.0366ZM45.0502 35.1704C45.0502 35.9364 44.4292 36.5574 43.6632 36.5574V37.5574C44.9815 37.5574 46.0502 36.4887 46.0502 35.1704H45.0502ZM43.6632 36.5574C42.8971 36.5574 42.2761 35.9364 42.2761 35.1704H41.2761C41.2761 36.4887 42.3448 37.5574 43.6632 37.5574V36.5574ZM42.2761 35.1704C42.2761 34.4043 42.8971 33.7833 43.6632 33.7833V32.7833C42.3448 32.7833 41.2761 33.8521 41.2761 35.1704H42.2761ZM43.6632 33.7833C44.4292 33.7833 45.0502 34.4043 45.0502 35.1704H46.0502C46.0502 33.8521 44.9815 32.7833 43.6632 32.7833V33.7833ZM54.9231 36.3445C54.9231 37.1105 54.3021 37.7315 53.5361 37.7315V38.7315C54.8544 38.7315 55.9231 37.6628 55.9231 36.3445H54.9231ZM53.5361 37.7315C52.7701 37.7315 52.1491 37.1105 52.1491 36.3445H51.1491C51.1491 37.6628 52.2178 38.7315 53.5361 38.7315V37.7315ZM52.1491 36.3445C52.1491 35.5785 52.7701 34.9575 53.5361 34.9575V33.9575C52.2178 33.9575 51.1491 35.0262 51.1491 36.3445H52.1491ZM53.5361 34.9575C54.3021 34.9575 54.9231 35.5785 54.9231 36.3445H55.9231C55.9231 35.0262 54.8544 33.9575 53.5361 33.9575V34.9575ZM41.4237 26.881C41.4237 27.6471 40.8027 28.2681 40.0367 28.2681V29.2681C41.355 29.2681 42.4237 28.1994 42.4237 26.881H41.4237ZM40.0367 28.2681C39.2706 28.2681 38.6496 27.6471 38.6496 26.881H37.6496C37.6496 28.1994 38.7183 29.2681 40.0367 29.2681V28.2681ZM38.6496 26.881C38.6496 26.115 39.2706 25.494 40.0367 25.494V24.494C38.7183 24.494 37.6496 25.5627 37.6496 26.881H38.6496ZM40.0367 25.494C40.8027 25.494 41.4237 26.115 41.4237 26.881H42.4237C42.4237 25.5627 41.355 24.494 40.0367 24.494V25.494ZM25.984 33.6257C25.984 34.3917 25.363 35.0127 24.597 35.0127V36.0127C25.9153 36.0127 26.984 34.944 26.984 33.6257H25.984ZM24.597 35.0127C23.831 35.0127 23.21 34.3917 23.21 33.6257H22.21C22.21 34.944 23.2787 36.0127 24.597 36.0127V35.0127ZM23.21 33.6257C23.21 32.8596 23.831 32.2386 24.597 32.2386V31.2386C23.2787 31.2386 22.21 32.3073 22.21 33.6257H23.21ZM24.597 32.2386C25.363 32.2386 25.984 32.8596 25.984 33.6257H26.984C26.984 32.3073 25.9153 31.2386 24.597 31.2386V32.2386ZM34.2711 41.0873C34.2711 41.8534 33.6501 42.4744 32.8841 42.4744V43.4744C34.2024 43.4744 35.2711 42.4057 35.2711 41.0873H34.2711ZM32.8841 42.4744C32.118 42.4744 31.497 41.8534 31.497 41.0873H30.497C30.497 42.4057 31.5657 43.4744 32.8841 43.4744V42.4744ZM31.497 41.0873C31.497 40.3213 32.118 39.7003 32.8841 39.7003V38.7003C31.5657 38.7003 30.497 39.769 30.497 41.0873H31.497ZM32.8841 39.7003C33.6501 39.7003 34.2711 40.3213 34.2711 41.0873H35.2711C35.2711 39.769 34.2024 38.7003 32.8841 38.7003V39.7003ZM25.984 45.0992C25.984 45.8652 25.363 46.4862 24.597 46.4862V47.4862C25.9153 47.4862 26.984 46.4175 26.984 45.0992H25.984ZM24.597 46.4862C23.831 46.4862 23.21 45.8652 23.21 45.0992H22.21C22.21 46.4175 23.2787 47.4862 24.597 47.4862V46.4862ZM23.21 45.0992C23.21 44.3331 23.831 43.7121 24.597 43.7121V42.7121C23.2787 42.7121 22.21 43.7809 22.21 45.0992H23.21ZM24.597 43.7121C25.363 43.7121 25.984 44.3331 25.984 45.0992H26.984C26.984 43.7809 25.9153 42.7121 24.597 42.7121V43.7121ZM18.5125 49.3228C14.8482 39.0963 21.4159 29.6776 31.0707 25.0029C40.7146 20.3333 53.1719 20.5464 60.9912 29.3832L61.7401 28.7206C53.5299 19.4419 40.5387 19.3074 30.6349 24.1028C20.7418 28.893 13.6625 38.7518 17.5711 49.6601L18.5125 49.3228ZM64.7609 19.5978C63.9801 20.7709 63.0906 22.4014 62.3566 24.0879C61.6255 25.7675 61.031 27.5426 60.8688 28.9964L61.8626 29.1074C62.0085 27.8006 62.5571 26.1328 63.2735 24.487C63.9869 22.848 64.849 21.2703 65.5934 20.1519L64.7609 19.5978ZM76.1489 27.193C77.0879 27.9695 77.2205 29.2582 76.5549 30.0631L77.3256 30.7004C78.3867 29.4171 78.096 27.5055 76.7862 26.4224L76.1489 27.193ZM76.5549 30.0631C75.8893 30.868 74.5987 30.9799 73.6596 30.2034L73.0224 30.9741C74.3323 32.0572 76.2644 31.9837 77.3256 30.7004L76.5549 30.0631ZM73.6596 30.2034C72.7206 29.427 72.5881 28.1383 73.2537 27.3334L72.483 26.6961C71.4218 27.9794 71.7125 29.891 73.0224 30.9741L73.6596 30.2034ZM73.2537 27.3334C73.9192 26.5284 75.2099 26.4166 76.1489 27.193L76.7862 26.4224C75.4763 25.3393 73.5442 25.4128 72.483 26.6961L73.2537 27.3334ZM8.96937 55.943C9.90837 56.7194 10.0409 58.0081 9.37536 58.8131L10.146 59.4503C11.2072 58.167 10.9165 56.2554 9.60661 55.1723L8.96937 55.943ZM9.37536 58.8131C8.70979 59.618 7.41911 59.7298 6.4801 58.9534L5.84285 59.724C7.1527 60.8071 9.08486 60.7336 10.146 59.4503L9.37536 58.8131ZM6.4801 58.9534C5.54109 58.1769 5.40854 56.8882 6.0741 56.0833L5.30344 55.446C4.24228 56.7294 4.533 58.6409 5.84285 59.724L6.4801 58.9534ZM6.0741 56.0833C6.73967 55.2784 8.03036 55.1665 8.96937 55.943L9.60661 55.1723C8.29676 54.0892 6.3646 54.1627 5.30344 55.446L6.0741 56.0833ZM10.9871 17.3034C10.9916 18.5218 10.0862 19.4485 9.04181 19.4523L9.04545 20.4523C10.7107 20.4463 11.9933 18.9994 11.9871 17.2998L10.9871 17.3034ZM9.04181 19.4523C7.99738 19.4561 7.08532 18.5361 7.08089 17.3176L6.08089 17.3213C6.08708 19.0209 7.38024 20.4584 9.04545 20.4523L9.04181 19.4523ZM7.08089 17.3176C7.07645 16.0992 7.98178 15.1725 9.02621 15.1687L9.02257 14.1687C7.35736 14.1748 6.07471 15.6216 6.08089 17.3213L7.08089 17.3176ZM9.02621 15.1687C10.0706 15.1649 10.9827 16.085 10.9871 17.3034L11.9871 17.2998C11.9809 15.6001 10.6878 14.1626 9.02257 14.1687L9.02621 15.1687ZM33.5724 10.7416C34.407 11.6293 34.3775 12.9245 33.6166 13.6399L34.3015 14.3684C35.5147 13.2278 35.4652 11.2949 34.3009 10.0566L33.5724 10.7416ZM33.6166 13.6399C32.8556 14.3553 31.5611 14.305 30.7264 13.4173L29.9979 14.1023C31.1621 15.3406 33.0883 15.5091 34.3015 14.3684L33.6166 13.6399ZM30.7264 13.4173C29.8918 12.5296 29.9213 11.2344 30.6823 10.519L29.9973 9.79043C28.7841 10.9311 28.8337 12.864 29.9979 14.1023L30.7264 13.4173ZM30.6823 10.519C31.4432 9.80356 32.7378 9.85385 33.5724 10.7416L34.3009 10.0566C33.1367 8.81828 31.2105 8.64978 29.9973 9.79043L30.6823 10.519ZM47.9031 3.99012C48.9182 4.66407 49.1849 5.93185 48.6072 6.80198L49.4403 7.3551C50.3613 5.9678 49.8722 4.09713 48.4562 3.15702L47.9031 3.99012ZM48.6072 6.80198C48.0295 7.6721 46.7576 7.91839 45.7425 7.24444L45.1894 8.07755C46.6053 9.01766 48.5192 8.7424 49.4403 7.3551L48.6072 6.80198ZM45.7425 7.24444C44.7274 6.5705 44.4607 5.30271 45.0384 4.43259L44.2053 3.87947C43.2843 5.26677 43.7734 7.13744 45.1894 8.07755L45.7425 7.24444ZM45.0384 4.43259C45.6161 3.56246 46.888 3.31617 47.9031 3.99012L48.4562 3.15702C47.0403 2.21691 45.1264 2.49217 44.2053 3.87947L45.0384 4.43259ZM47.6439 68.2382C48.9527 69.3513 50.4808 68.8253 51.1939 68.5012L50.7801 67.5908C50.1094 67.8957 49.1131 68.1749 48.2917 67.4764L47.6439 68.2382ZM41.1801 64.926C41.9086 65.2125 42.3406 65.5717 43.2417 66.6656L44.0135 66.0298C43.0753 64.8909 42.5115 64.3751 41.5462 63.9954L41.1801 64.926ZM43.2417 66.6656C43.7356 67.2652 44.7606 68.1696 45.6264 68.899C46.0665 69.2698 46.4771 69.605 46.7777 69.8475C46.9281 69.9688 47.051 70.067 47.1366 70.135C47.1793 70.169 47.2127 70.1955 47.2355 70.2135C47.2469 70.2225 47.2557 70.2294 47.2616 70.2341C47.2646 70.2365 47.2669 70.2382 47.2684 70.2395C47.2692 70.2401 47.2698 70.2405 47.2702 70.2409C47.2704 70.241 47.2705 70.2411 47.2706 70.2412C47.2707 70.2413 47.2708 70.2413 47.2708 70.2413C47.2708 70.2414 47.2708 70.2414 47.5799 69.8483C47.8889 69.4553 47.8889 69.4553 47.8889 69.4553C47.8889 69.4552 47.8889 69.4552 47.8888 69.4552C47.8888 69.4551 47.8886 69.4551 47.8885 69.4549C47.8881 69.4547 47.8876 69.4543 47.8869 69.4537C47.8856 69.4526 47.8835 69.451 47.8807 69.4488C47.8751 69.4444 47.8667 69.4378 47.8557 69.429C47.8336 69.4116 47.8009 69.3857 47.759 69.3524C47.6751 69.2856 47.5539 69.1889 47.4056 69.0692C47.1088 68.8298 46.7039 68.4992 46.2708 68.1343C45.3904 67.3926 44.4392 66.5465 44.0135 66.0298L43.2417 66.6656ZM42.2982 58.6972C43.1913 59.712 43.4706 60.3985 43.5733 60.9997C43.627 61.3144 43.6355 61.6229 43.6403 61.9839C43.6451 62.3382 43.6464 62.7415 43.6968 63.195L44.6907 63.0845C44.6467 62.6888 44.6452 62.3373 44.6403 61.9705C44.6354 61.6103 44.6273 61.2313 44.559 60.8314C44.4176 60.0036 44.0312 59.1528 43.049 58.0366L42.2982 58.6972ZM43.6968 63.195C43.7584 63.7498 44.0804 64.3433 44.4524 64.8787C44.8355 65.4299 45.3204 65.9872 45.7892 66.48C46.2596 66.9745 46.7227 67.4135 47.0675 67.7283C47.2401 67.8859 47.3837 68.013 47.4846 68.101C47.535 68.145 47.5748 68.1793 47.6022 68.2028C47.6159 68.2145 47.6266 68.2235 47.6339 68.2298C47.6375 68.2329 47.6404 68.2353 47.6423 68.2369C47.6433 68.2378 47.6441 68.2384 47.6447 68.2389C47.645 68.2391 47.6452 68.2393 47.6454 68.2395C47.6454 68.2396 47.6455 68.2396 47.6456 68.2397C47.6456 68.2397 47.6457 68.2398 47.9678 67.8573C48.2898 67.4749 48.2899 67.4749 48.2899 67.4749C48.2899 67.4749 48.2899 67.4749 48.2899 67.4749C48.2898 67.4748 48.2897 67.4748 48.2896 67.4746C48.2893 67.4744 48.2887 67.4739 48.288 67.4733C48.2865 67.4721 48.2842 67.4701 48.2811 67.4675C48.2748 67.4621 48.2653 67.454 48.2527 67.4432C48.2275 67.4216 48.1901 67.3894 48.1421 67.3475C48.0461 67.2638 47.9082 67.1417 47.7417 66.9898C47.4084 66.6854 46.9633 66.2634 46.5138 65.7908C46.0626 65.3165 45.6159 64.8006 45.2736 64.308C44.9204 63.7997 44.7234 63.3788 44.6907 63.0845L43.6968 63.195ZM47.185 67.1563C47.5227 66.7875 47.5228 66.7876 47.5229 66.7877C47.5229 66.7877 47.523 66.7878 47.523 66.7878C47.5231 66.7879 47.5232 66.788 47.5232 66.7881C47.5234 66.7882 47.5234 66.7882 47.5233 66.7881C47.5232 66.788 47.5228 66.7877 47.5221 66.787C47.5207 66.7857 47.5181 66.7833 47.5145 66.7798C47.5073 66.7729 47.4961 66.7621 47.4822 66.7482C47.454 66.72 47.4165 66.6808 47.3784 66.6365C47.3394 66.5913 47.3054 66.5472 47.2807 66.5088C47.2527 66.4651 47.2536 66.4547 47.2581 66.474C47.2635 66.4967 47.2836 66.6176 47.1898 66.7381C47.1063 66.8452 47.0134 66.8451 47.0562 66.8396C47.149 66.8278 47.4221 66.8462 48.0189 67.0171L48.2941 66.0557C47.6919 65.8833 47.2441 65.8076 46.9298 65.8476C46.7692 65.8681 46.5513 65.9304 46.4008 66.1236C46.24 66.3301 46.2511 66.5607 46.2849 66.7038C46.3179 66.8435 46.3846 66.9641 46.4394 67.0494C46.4977 67.14 46.5634 67.2227 46.6207 67.2892C46.6789 67.3567 46.7341 67.4142 46.7745 67.4547C46.7949 67.4752 46.8121 67.4918 46.8246 67.5037C46.8308 67.5096 46.836 67.5145 46.8398 67.5181C46.8417 67.5198 46.8433 67.5213 46.8446 67.5225C46.8452 67.5231 46.8457 67.5236 46.8462 67.524C46.8464 67.5242 46.8466 67.5244 46.8468 67.5245C46.8469 67.5246 46.847 67.5247 46.8471 67.5248C46.8472 67.5249 46.8473 67.525 47.185 67.1563ZM48.0189 67.0171C50.5913 67.7535 52.6464 67.1342 56.2243 65.8426L55.8847 64.902C52.2814 66.2028 50.5176 66.6923 48.2941 66.0557L48.0189 67.0171ZM51.2351 68.4801C51.97 68.0602 52.331 67.6406 52.5998 67.3239C52.859 67.0186 52.9599 66.9106 53.2004 66.8501L52.9566 65.8803C52.3718 66.0273 52.0874 66.3823 51.8374 66.6768C51.5971 66.9599 51.325 67.277 50.739 67.6119L51.2351 68.4801ZM41.7886 59.2936C42.5263 60.0358 42.5262 61.1411 41.8987 61.7648L42.6036 62.4741C43.6715 61.4128 43.5747 59.6721 42.4978 58.5886L41.7886 59.2936ZM41.8987 61.7648C41.2712 62.3885 40.1658 62.3818 39.4281 61.6396L38.7189 62.3445C39.7958 63.428 41.5358 63.5354 42.6036 62.4741L41.8987 61.7648ZM39.4281 61.6396C38.6905 60.8973 38.6905 59.792 39.318 59.1683L38.6131 58.459C37.5452 59.5203 37.642 61.261 38.7189 62.3445L39.4281 61.6396ZM39.318 59.1683C39.9455 58.5446 41.0509 58.5513 41.7886 59.2936L42.4978 58.5886C41.4209 57.5051 39.6809 57.3977 38.6131 58.459L39.318 59.1683ZM36.7381 15.2337C37.1327 16.2506 37.6739 16.8801 38.3889 17.0677C39.085 17.2504 39.76 16.9614 40.2971 16.614C40.8463 16.2587 41.3646 15.7674 41.7799 15.3672C41.9942 15.1606 42.1769 14.9821 42.337 14.8394C42.5075 14.6874 42.6041 14.621 42.6454 14.6021L42.2296 13.6926C42.0365 13.7809 41.8402 13.9426 41.6716 14.0929C41.4927 14.2524 41.2903 14.4502 41.0859 14.6472C40.6638 15.0541 40.2105 15.479 39.754 15.7743C39.2853 16.0775 38.9206 16.1734 38.6428 16.1005C38.384 16.0325 38.0174 15.7661 37.6704 14.8719L36.7381 15.2337ZM42.7457 14.5411C42.8337 14.4722 43.0062 14.412 43.3403 14.4525C43.671 14.4927 44.0937 14.6248 44.6 14.8517C45.6096 15.3042 46.8483 16.0863 48.1669 17.041C50.7981 18.946 53.6625 21.4755 55.4965 23.225L56.1868 22.5014C54.334 20.734 51.4338 18.1716 48.7534 16.231C47.4162 15.2629 46.1123 14.4336 45.009 13.9391C44.4587 13.6925 43.9323 13.5171 43.4608 13.4598C42.9928 13.403 42.51 13.4556 42.1293 13.7537L42.7457 14.5411ZM15.4157 33.3426C15.6496 33.5932 15.9019 33.824 16.1564 33.9935C16.3982 34.1546 16.7075 34.3046 17.0388 34.2892C17.4289 34.2711 17.7191 34.0346 17.8841 33.6916C18.034 33.3802 18.0938 32.9649 18.0938 32.4688H17.0938C17.0938 32.9101 17.0363 33.1474 16.983 33.258C16.9449 33.3372 16.9461 33.2925 16.9924 33.2903C16.9925 33.2903 16.9864 33.2906 16.973 33.2881C16.9595 33.2856 16.9401 33.2806 16.9144 33.271C16.8619 33.2513 16.7937 33.2165 16.7107 33.1612C16.5434 33.0498 16.3503 32.8784 16.1467 32.6603L15.4157 33.3426ZM27.7275 53.182C26.9279 54.0399 26.0995 54.3759 25.2862 54.3991C24.4551 54.4228 23.581 54.1211 22.7111 53.5928C20.9641 52.5319 19.3819 50.6475 18.4621 49.2205L17.6216 49.7623C18.5837 51.2549 20.2648 53.2771 22.192 54.4475C23.1591 55.0348 24.2247 55.4298 25.3147 55.3987C26.4224 55.3671 27.4963 54.8967 28.459 53.8638L27.7275 53.182ZM46.7138 49.3298C48.4138 45.2876 52.3303 44.7843 54.0791 45.0421L54.2249 44.0528C52.2265 43.7581 47.7373 44.3168 45.792 48.9421L46.7138 49.3298Z" fill="white"/>
</svg>
